# xmcd
#
# Track frame offsets: 
#        150
#        2123
#        2645
#        19964
#        37875
#        55174
#        73789
#        75203
#        97169
#        115540
#        135398
#        155249
#        172992
#        192226
#        209537
#        240934
#        261148
#        279653
#        297395
#
# Disc length: 4219 seconds
#
# Revision: 0
# Processed by: cddbd v1.5.2PL0 Copyright (c) Steve Scherf et al.
# Submitted via: ExactAudioCopy v0.99pb4
#
DISCID=00107913
DTITLE=Boxx - Digital Funk
DYEAR=2008
DGENRE=R&B
TTITLE0=The Boxx Featuring Summers
TTITLE1=Interlude:Never Fear
TTITLE2=Slide
TTITLE3=Are You Single? Featuring P.Bass Jones
TTITLE4=Break It On Down
TTITLE5=Pop It Featuring Mr. Creeps Dominator
TTITLE6=Interlude:Pimp Civil War
TTITLE7=Just To See You Smile Featuring Jon Mykal
TTITLE8=Do You Wanna? Featuring Jon Mykal
TTITLE9=Ur All That!
TTITLE10=West Coast Pimp'n
TTITLE11=Got To Know You Girl
TTITLE12=Trouble
TTITLE13=Goin Out Tonight Featuring Sara S,Dominator
TTITLE14=Good Times Bad Times Featuring Boxx,Crazy Boy,Dominator
TTITLE15=Get With U feaat Lil Rome,Terry Troutman
TTITLE16=Baby I'm Moving On Featuring Andre
TTITLE17=Take It Off Featuring Andre
TTITLE18=Sexy Mutha Fucker Featuring Clarence Doc Sutton
EXTD=
EXTT0=
EXTT1=
EXTT2=
EXTT3=
EXTT4=
EXTT5=
EXTT6=
EXTT7=
EXTT8=
EXTT9=
EXTT10=
EXTT11=
EXTT12=
EXTT13=
EXTT14=
EXTT15=
EXTT16=
EXTT17=
EXTT18=
PLAYORDER=
